<?xml version="1.0" encoding="UTF-8"?>
<svg width="52px" height="32px" viewBox="0 0 52 32" version="1.1" xmlns="http://www.w3.org/2000/svg" xmlns:xlink="http://www.w3.org/1999/xlink">
    <title>Group</title>
    <g id="Version-1.01" stroke="none" stroke-width="1" fill="none" fill-rule="evenodd">
        <g id="Artboard" transform="translate(-39.000000, -46.000000)" fill-rule="nonzero">
            <g id="Group" transform="translate(39.000000, 46.000000)">
                <path d="M51.6889461,0 C51.7754522,0 51.8455793,0.0701270589 51.8455793,0.15663317 L51.8455793,26.3143726 C51.8455793,26.4008787 51.7754522,26.4710057 51.6889461,26.4710057 L0.15663317,26.4710057 C0.0701270589,26.4710057 0,26.4008787 0,26.3143726 L0,0.15663317 C0,0.0701270589 0.0701270589,0 0.15663317,0 L51.6889461,0 Z M25.9287796,0.625897948 C25.9754261,0.741458168 26.0011062,0.867730123 26.0011062,1 L26.0011062,25.4710057 C26.0011062,25.6032756 25.9754261,25.7295476 25.9287796,25.8451078 L51.2190466,25.8444731 L51.2190466,0.62653268 L25.9287796,0.625897948 Z M15.1796338,3.33378039 L11.233731,3.33378039 L3.43026642,23.4166589 L7.6706396,23.4166589 L9.26077954,18.8523683 L16.6814326,18.8523683 L18.2421255,23.4166589 L22.5708398,23.4166589 L15.1796338,3.33378039 Z M38.7838796,3.33097874 C40.0509155,3.33097874 42.2617019,3.4160384 43.1316737,3.63464671 C44.0016456,3.85325501 44.771236,4.18116747 45.4404451,4.61838408 C46.2434961,5.14482858 46.8569377,5.81849907 47.2807702,6.63939557 C47.7046026,7.46029206 47.92975,8.61482435 47.9294173,8.88350224 C47.9279324,9.77577951 47.9358175,11.0183812 47.6235199,11.8705075 C47.3112224,12.7226338 46.865083,13.4386875 46.2851017,14.0186687 C45.4909736,14.8038741 44.6053869,15.3972395 43.6283416,15.7987649 C42.6512963,16.2002904 40.130647,16.0548999 38.6762325,16.0548999 L38.6762325,16.0548999 L35.6468568,16.0548999 L35.6340462,23.2600257 L31.0916842,23.2600257 L31.0916842,3.33097874 Z M13.0594472,7.98641207 C13.3244705,8.9876113 13.6189409,9.92991645 14.0017523,11.0489038 L15.6507863,15.8487707 L10.2619788,15.8487707 L11.9404598,11.0783508 C12.3232713,10.0477046 12.6471887,9.01705833 12.912212,7.98641207 L13.0594472,7.98641207 Z M35.6340462,6.7179416 L35.6340462,12.6872868 L37.2337181,12.7078602 C38.2844657,12.7078602 39.9462366,12.6235781 40.6270781,12.5165046 C41.3079196,12.4094312 41.8788615,12.1952842 42.3399038,11.8740639 C42.7366146,11.5885347 43.0234257,11.247238 43.2003373,10.8501739 C43.3772489,10.4531099 43.4657047,9.96904863 43.4657047,9.3979902 C43.4657047,8.83585456 43.2834321,8.35179331 42.9188871,7.94580645 C42.554342,7.5398196 42.1308265,7.25652108 41.6483404,7.0959109 C41.0050255,6.88176398 40.3777936,6.76353704 39.7666445,6.74123007 C39.5920305,6.73485665 39.3358089,6.73190355 39.0351099,6.73093657 L38.5553444,6.73079643 C37.8835564,6.73211764 37.1081186,6.738515 36.5260719,6.738515 L36.5260719,6.738515 L35.6340462,6.7179416 Z" id="Combined-Shape" fill="#0075BD"></path>
                <path d="M1.5063412,32 C1.73930693,32 1.95065729,31.9459616 2.14039227,31.8378847 C2.33733237,31.7250044 2.48743916,31.5772993 2.59071263,31.3947694 L2.59071263,31.3947694 L2.23045634,31.1894233 C2.16561021,31.3143122 2.06834101,31.4133827 1.93864875,31.4866348 C1.80895648,31.5598869 1.66485396,31.596513 1.5063412,31.596513 C1.23975154,31.596513 1.02119606,31.5112523 0.850674746,31.340731 C0.684956852,31.1726114 0.602097906,30.9564576 0.602097906,30.6922697 C0.602097906,30.4280817 0.684956852,30.2119279 0.850674746,30.0438083 C1.02119606,29.873287 1.23975154,29.7880264 1.5063412,29.7880264 C1.66485396,29.7880264 1.80835605,29.8246524 1.93684746,29.8979045 C2.06533887,29.9711567 2.1632085,30.0702271 2.23045634,30.195116 L2.23045634,30.195116 L2.59071263,29.9861673 C2.48263574,29.8012358 2.33192853,29.6547315 2.13859099,29.5466547 C1.94525344,29.4385778 1.73450351,29.3845393 1.5063412,29.3845393 C1.12446953,29.3845393 0.8098457,29.510629 0.562469714,29.7628084 C0.312692018,30.0125861 0.187803171,30.3224065 0.187803171,30.6922697 C0.187803171,31.0597311 0.312692018,31.3707523 0.562469714,31.6253335 C0.812247409,31.8751112 1.12687124,32 1.5063412,32 Z M8.05940313,32 C8.42446284,32 8.73308239,31.8739103 8.9852618,31.6217309 C9.23984291,31.3671498 9.36713347,31.0573294 9.36713347,30.6922697 C9.36713347,30.32721 9.23984291,30.0185904 8.9852618,29.766411 C8.73308239,29.5118299 8.42446284,29.3845393 8.05940313,29.3845393 C7.69434342,29.3845393 7.38452301,29.5118299 7.1299419,29.766411 C6.8777625,30.0185904 6.75167279,30.32721 6.75167279,30.6922697 C6.75167279,31.0573294 6.8777625,31.3671498 7.1299419,31.6217309 C7.38452301,31.8739103 7.69434342,32 8.05940313,32 Z M8.05940313,31.596513 C7.80962543,31.596513 7.59707422,31.5112523 7.42174949,31.340731 C7.25122818,31.1654063 7.16596753,30.9492525 7.16596753,30.6922697 C7.16596753,30.4328851 7.25122818,30.2179322 7.42174949,30.0474109 C7.59467251,29.8744879 7.80722373,29.7880264 8.05940313,29.7880264 C8.31158253,29.7880264 8.52293289,29.8744879 8.6934542,30.0474109 C8.86637722,30.2179322 8.95283873,30.4328851 8.95283873,30.6922697 C8.95283873,30.9516542 8.86637722,31.167808 8.6934542,31.340731 C8.52293289,31.5112523 8.31158253,31.596513 8.05940313,31.596513 Z M14.1225165,31.9531667 L14.1225165,30.1518852 L14.8898624,31.4235899 L14.9402983,31.4235899 L15.7076442,30.1554878 L15.7076442,31.9531667 L16.1219389,31.9531667 L16.1219389,29.4313726 L15.6788237,29.4313726 L14.9150803,30.6922697 L14.1549396,29.4313726 L13.7082218,29.4313726 L13.7082218,31.9531667 L14.1225165,31.9531667 Z M21.0034117,31.9531667 L21.0034117,31.0885516 L21.5185782,31.0885516 C21.7563473,31.0885516 21.9544883,31.0092952 22.113001,30.8507824 C22.2739155,30.689868 22.3543728,30.4929278 22.3543728,30.2599621 C22.3543728,30.0245947 22.2739155,29.8276546 22.113001,29.6691418 C21.9544883,29.510629 21.7563473,29.4313726 21.5185782,29.4313726 L21.5185782,29.4313726 L20.5891169,29.4313726 L20.5891169,31.9531667 L21.0034117,31.9531667 Z M21.5185782,30.6994748 L21.0034117,30.6994748 L21.0034117,29.8204494 L21.5185782,29.8204494 C21.6410653,29.8204494 21.7419371,29.8618789 21.8211934,29.9447379 C21.9004498,30.0275968 21.940078,30.1326716 21.940078,30.2599621 C21.940078,30.3872527 21.9004498,30.4923274 21.8211934,30.5751864 C21.7419371,30.6580453 21.6410653,30.6994748 21.5185782,30.6994748 L21.5185782,30.6994748 Z M26.6414226,31.9531667 L26.8179482,31.4452053 L27.891512,31.4452053 L28.0680375,31.9531667 L28.5147553,31.9531667 L27.6033069,29.4313726 L27.1061532,29.4313726 L26.1911023,31.9531667 L26.6414226,31.9531667 Z M27.7546146,31.0561285 L26.9548456,31.0561285 L27.3547301,29.9177186 L27.7546146,31.0561285 Z M33.1620615,31.9531667 L33.1620615,30.2419493 L34.3509072,31.9531667 L34.6751379,31.9531667 L34.6751379,29.4313726 L34.2608432,29.4313726 L34.2608432,31.14259 L33.0719974,29.4313726 L32.7477668,29.4313726 L32.7477668,31.9531667 L33.1620615,31.9531667 Z M39.5566107,31.9531667 L39.5566107,29.4313726 L39.1423159,29.4313726 L39.1423159,31.9531667 L39.5566107,31.9531667 Z M45.5548779,31.9531667 L45.5548779,31.5568848 L44.4380834,31.5568848 L44.4380834,30.8760004 L45.446801,30.8760004 L45.446801,30.483321 L44.4380834,30.483321 L44.4380834,29.8276546 L45.5368651,29.8276546 L45.5368651,29.4313726 L44.0237887,29.4313726 L44.0237887,31.9531667 L45.5548779,31.9531667 Z M50.7353634,32 C51.0043547,32 51.2193076,31.933953 51.3802221,31.801859 C51.54594,31.6673634 51.628799,31.4860344 51.628799,31.257872 C51.6432092,31.0585302 51.5567477,30.8856072 51.3694144,30.739103 C51.323782,30.7030774 51.2625384,30.6694534 51.1856837,30.6382312 C51.0920171,30.5998039 51.0295727,30.5757868 50.9983505,30.56618 C50.9791368,30.5589748 50.9094872,30.5349577 50.7894018,30.4941287 C50.5948634,30.434086 50.4615686,30.3770454 50.3895173,30.323007 C50.3174661,30.2689685 50.2814404,30.195116 50.2814404,30.1014493 C50.2814404,30.005381 50.3174661,29.9291268 50.3895173,29.8726866 C50.4615686,29.8162464 50.5576369,29.7880264 50.6777224,29.7880264 C50.9250983,29.7880264 51.1016239,29.9057101 51.2072991,30.1410775 L51.2072991,30.1410775 L51.5567477,29.939334 C51.4750896,29.7640093 51.3580063,29.6277123 51.2054978,29.5304431 C51.0529893,29.4331739 50.8770642,29.3845393 50.6777224,29.3845393 C50.4519617,29.3845393 50.2610259,29.4505863 50.1049149,29.5826803 C49.9464021,29.7123726 49.8671457,29.8888981 49.8671457,30.112257 C49.8671457,30.3356159 49.9488038,30.5049364 50.11212,30.6202184 C50.2466157,30.7090816 50.4231412,30.7859363 50.6416967,30.8507824 C50.8554488,30.9156286 51.0043547,30.9756713 51.0884145,31.0309106 C51.1724743,31.0861499 51.2145042,31.1642054 51.2145042,31.2650772 C51.2145042,31.3659489 51.174876,31.4464062 51.0956197,31.5064489 C51.0163633,31.5664916 50.8998804,31.596513 50.7461711,31.596513 C50.4291455,31.596513 50.2201969,31.4548121 50.1193251,31.1714105 L50.1193251,31.1714105 L49.7626714,31.3803592 C49.8299192,31.5748976 49.9482034,31.7268056 50.1175238,31.8360834 C50.2868443,31.9453611 50.4927908,32 50.7353634,32 Z" id="COMPANIES" fill="#000000"></path>
            </g>
        </g>
    </g>
</svg>