<svg width="40" height="40" viewBox="0 0 40 40" fill="none" xmlns="http://www.w3.org/2000/svg">
<path d="M30.8108 38.9189H9.18921C8.47268 38.918 7.78573 38.633 7.27906 38.1263C6.77239 37.6197 6.48737 36.9327 6.48651 36.2162V3.78376C6.48737 3.06722 6.77239 2.38028 7.27906 1.87361C7.78573 1.36694 8.47268 1.08191 9.18921 1.08105H30.8108C31.5274 1.08191 32.2143 1.36694 32.721 1.87361C33.2277 2.38028 33.5127 3.06722 33.5135 3.78376V36.2162C33.5127 36.9327 33.2277 37.6197 32.721 38.1263C32.2143 38.633 31.5274 38.918 30.8108 38.9189ZM9.18921 2.16214C8.75913 2.16214 8.34667 2.33298 8.04255 2.6371C7.73844 2.94121 7.56759 3.35368 7.56759 3.78376V36.2162C7.56759 36.6463 7.73844 37.0587 8.04255 37.3629C8.34667 37.667 8.75913 37.8378 9.18921 37.8378H30.8108C31.2409 37.8378 31.6534 37.667 31.9575 37.3629C32.2616 37.0587 32.4325 36.6463 32.4325 36.2162V3.78376C32.4325 3.35368 32.2616 2.94121 31.9575 2.6371C31.6534 2.33298 31.2409 2.16214 30.8108 2.16214H9.18921Z" fill="white"/>
<path d="M28.9189 12.4328H11.0811C10.7944 12.4328 10.5194 12.3189 10.3166 12.1161C10.1139 11.9134 10 11.6384 10 11.3517V6.48684C10 6.20012 10.1139 5.92514 10.3166 5.7224C10.5194 5.51966 10.7944 5.40576 11.0811 5.40576H28.9189C29.2056 5.40576 29.4806 5.51966 29.6834 5.7224C29.8861 5.92514 30 6.20012 30 6.48684V11.3517C30 11.6384 29.8861 11.9134 29.6834 12.1161C29.4806 12.3189 29.2056 12.4328 28.9189 12.4328ZM11.0811 6.48684V11.3517H28.9189V6.48684H11.0811Z" fill="white"/>
<path d="M28.4459 20.1578H25.6308C25.3859 20.1577 25.1511 20.0604 24.9779 19.8873C24.8048 19.7142 24.7073 19.4794 24.707 19.2345V16.4189C24.7075 16.174 24.8049 15.9394 24.9781 15.7663C25.1513 15.5932 25.386 15.4959 25.6308 15.4956H28.4459C28.6907 15.496 28.9252 15.5934 29.0983 15.7665C29.2713 15.9395 29.3687 16.1741 29.3692 16.4189V19.234C29.369 19.4789 29.2717 19.7137 29.0986 19.8869C28.9255 20.0601 28.6908 20.1575 28.4459 20.1578ZM25.7881 19.0767H28.2881V16.5767H25.7881V19.0767Z" fill="white"/>
<path d="M21.4054 20.1578H18.5946C18.3499 20.1575 18.1152 20.0601 17.9421 19.8871C17.769 19.714 17.6717 19.4793 17.6714 19.2345V16.4189C17.6718 16.1741 17.7692 15.9395 17.9423 15.7665C18.1153 15.5934 18.3499 15.496 18.5946 15.4956H21.4054C21.6501 15.496 21.8847 15.5934 22.0578 15.7665C22.2308 15.9395 22.3282 16.1741 22.3287 16.4189V19.234C22.3285 19.4789 22.2312 19.7137 22.0581 19.8869C21.885 20.0601 21.6503 20.1575 21.4054 20.1578ZM18.7476 19.0767H21.2476V16.5767H18.7503L18.7476 19.0767Z" fill="white"/>
<path d="M14.3692 20.1578H11.5541C11.3093 20.1575 11.0747 20.0601 10.9016 19.8871C10.7285 19.714 10.6311 19.4793 10.6309 19.2345V16.4189C10.6313 16.1741 10.7287 15.9395 10.9017 15.7665C11.0748 15.5934 11.3094 15.496 11.5541 15.4956H14.3692C14.6141 15.4959 14.8488 15.5932 15.022 15.7663C15.1951 15.9394 15.2926 16.174 15.293 16.4189V19.234C15.2929 19.479 15.1955 19.7139 15.0223 19.8871C14.8491 20.0603 14.6142 20.1577 14.3692 20.1578ZM11.7119 19.0767H14.2119V16.5767H11.7119V19.0767Z" fill="white"/>
<path d="M21.4054 27.1963H18.5946C18.473 27.1964 18.3526 27.1725 18.2403 27.126C18.1279 27.0795 18.0258 27.0113 17.9399 26.9253C17.8539 26.8393 17.7858 26.7372 17.7393 26.6248C17.6929 26.5124 17.669 26.392 17.6692 26.2704V23.4596C17.6691 23.338 17.693 23.2177 17.7395 23.1054C17.786 22.9931 17.8541 22.891 17.9401 22.8051C18.026 22.7191 18.1281 22.651 18.2404 22.6045C18.3527 22.558 18.4731 22.5341 18.5946 22.5342H21.4054C21.527 22.534 21.6474 22.5579 21.7598 22.6043C21.8722 22.6508 21.9743 22.7189 22.0603 22.8049C22.1463 22.8908 22.2145 22.9929 22.261 23.1052C22.3075 23.2176 22.3314 23.338 22.3314 23.4596V26.2704C22.3315 26.392 22.3076 26.5125 22.2612 26.6249C22.2147 26.7373 22.1465 26.8394 22.0605 26.9255C21.9745 27.0115 21.8723 27.0797 21.7599 27.1261C21.6475 27.1726 21.527 27.1965 21.4054 27.1963ZM18.7476 26.1153H21.2476V23.6153H18.7503L18.7476 26.1153Z" fill="white"/>
<path d="M14.3692 27.1961H11.5541C11.3089 27.1957 11.0739 27.0979 10.9008 26.9243C10.7277 26.7507 10.6306 26.5154 10.6309 26.2702V23.4594C10.6313 23.2146 10.7287 22.9801 10.9017 22.807C11.0748 22.634 11.3094 22.5366 11.5541 22.5361H14.3692C14.6141 22.5364 14.8488 22.6338 15.0219 22.8068C15.1951 22.9799 15.2926 23.2146 15.293 23.4594V26.2702C15.2932 26.3916 15.2694 26.5119 15.223 26.6242C15.1767 26.7365 15.1087 26.8385 15.0229 26.9245C14.9371 27.0105 14.8352 27.0787 14.7231 27.1253C14.6109 27.1719 14.4907 27.196 14.3692 27.1961ZM11.7119 26.115H14.2119V23.6151H11.7119V26.115Z" fill="white"/>
<path d="M28.4443 34.2323H25.6335C25.3887 34.2319 25.1541 34.1345 24.9811 33.9615C24.808 33.7884 24.7106 33.5538 24.7102 33.3091V23.4594C24.7106 23.2146 24.808 22.9801 24.9811 22.807C25.1541 22.634 25.3887 22.5366 25.6335 22.5361H28.4443C28.689 22.5366 28.9236 22.634 29.0966 22.807C29.2697 22.9801 29.3671 23.2146 29.3675 23.4594V33.3091C29.3671 33.5538 29.2697 33.7884 29.0966 33.9615C28.9236 34.1345 28.689 34.2319 28.4443 34.2323ZM25.7891 33.1513H28.2864V23.6161H25.7891V33.1513Z" fill="white"/>
<path d="M21.4054 34.2339H18.5946C18.3499 34.2335 18.1153 34.1361 17.9423 33.9631C17.7692 33.79 17.6718 33.5554 17.6714 33.3107V30.4956C17.6715 30.2507 17.7688 30.0159 17.9419 29.8427C18.115 29.6695 18.3498 29.5721 18.5946 29.5718H21.4054C21.6502 29.5721 21.8848 29.6694 22.0579 29.8425C22.231 30.0156 22.3284 30.2502 22.3287 30.495V33.3102C22.3284 33.555 22.231 33.7897 22.058 33.9629C21.8849 34.136 21.6502 34.2335 21.4054 34.2339ZM18.7476 33.1529H21.2476V30.6529H18.7503L18.7476 33.1529Z" fill="white"/>
<path d="M14.3692 34.2339H11.5541C11.3094 34.2335 11.0748 34.1361 10.9017 33.963C10.7287 33.79 10.6313 33.5554 10.6309 33.3106V30.4955C10.6311 30.2507 10.7285 30.0161 10.9016 29.843C11.0747 29.6699 11.3093 29.5726 11.5541 29.5723H14.3692C14.6141 29.5724 14.8489 29.6697 15.0221 29.8428C15.1953 30.0159 15.2927 30.2506 15.293 30.4955V33.3106C15.2926 33.5555 15.1951 33.7901 15.022 33.9632C14.8488 34.1363 14.6141 34.2336 14.3692 34.2339ZM11.7119 33.1528H14.2119V30.6528H11.7119V33.1528Z" fill="white"/>
</svg>
