<svg viewBox="0 0 20 20" fill="none" xmlns="http://www.w3.org/2000/svg">
    <path d="M2.92969 20h6.52343v-7.1094H7.10938v-2.3437h2.34374V7.61719c0-1.61545 1.31428-2.92969 2.92968-2.92969h2.9297v2.34375h-2.3437c-.6463 0-1.1719.52567-1.1719 1.17187v2.34378h3.4099l-.3907 2.3437h-3.0192V20h5.2734C18.6858 20 20 18.6858 20 17.0703V2.92969C20 1.31424 18.6858 0 17.0703 0H2.92969C1.31424 0 0 1.31424 0 2.92969V17.0703C0 18.6858 1.31424 20 2.92969 20zM1.17188 2.92969c0-.96924.78857-1.75781 1.75781-1.75781H17.0703c.9693 0 1.7578.78857 1.7578 1.75781V17.0703c0 .9693-.7885 1.7578-1.7578 1.7578h-4.1015v-4.7656h2.8401l.7812-4.6875h-3.6213V8.20312h3.5156v-4.6875h-4.1016c-2.2616 0-4.10155 1.83991-4.10155 4.10157V9.375H5.9375v4.6875h2.34375v4.7656H2.92969c-.96924 0-1.75781-.7885-1.75781-1.7578V2.92969z" fill="#fff"/>
</svg>