<svg viewBox="0 0 20 20" fill="none" xmlns="http://www.w3.org/2000/svg">
    <path d="M2.92969 20H17.0703C18.6858 20 20 18.6858 20 17.0703V2.92969C20 1.31424 18.6858 0 17.0703 0H2.92969C1.31424 0 0 1.31424 0 2.92969V17.0703C0 18.6858 1.31424 20 2.92969 20zM1.17188 2.92969c0-.96924.78857-1.75781 1.75781-1.75781H17.0703c.9693 0 1.7578.78857 1.7578 1.75781V17.0703c0 .9693-.7885 1.7578-1.7578 1.7578H2.92969c-.96924 0-1.75781-.7885-1.75781-1.7578V2.92969z" fill="#fff"/>
    <path d="M10 15.2734c2.9077 0 5.2734-2.3657 5.2734-5.2734 0-2.90771-2.3657-5.27344-5.2734-5.27344-2.90771 0-5.27344 2.36573-5.27344 5.27344 0 2.9077 2.36573 5.2734 5.27344 5.2734zm0-9.37496c2.2617 0 4.1016 1.8399 4.1016 4.10156 0 2.2617-1.8399 4.1016-4.1016 4.1016-2.26166 0-4.10156-1.8399-4.10156-4.1016 0-2.26166 1.8399-4.10156 4.10156-4.10156zM15.8594 5.89844c.9692 0 1.7578-.78858 1.7578-1.75782 0-.96923-.7886-1.75781-1.7578-1.75781-.9693 0-1.7578.78858-1.7578 1.75781 0 .96924.7885 1.75782 1.7578 1.75782zm0-2.34375c.323 0 .5859.26291.5859.58593 0 .32303-.2629.58594-.5859.58594-.3231 0-.586-.26291-.586-.58594 0-.32302.2629-.58593.586-.58593z" fill="#fff"/>
</svg>