<svg width="20" height="20" viewBox="0 0 20 20" fill="none" xmlns="http://www.w3.org/2000/svg">
<g clip-path="url(#clip0)">
<path d="M18.4946 12.8572C18.1017 12.8572 17.7833 13.177 17.7833 13.5715V17.8572C17.7833 18.2517 17.4648 18.5715 17.0719 18.5715H2.84583C2.45297 18.5715 2.1345 18.2517 2.1345 17.8572V13.5715C2.1345 13.177 1.81604 12.8572 1.42318 12.8572C1.03032 12.8572 0.711857 13.177 0.711857 13.5715V17.8572C0.711857 19.0407 1.66725 20 2.84578 20H17.072C18.2505 20 19.2059 19.0407 19.2059 17.8572V13.5715C19.2059 13.177 18.8875 12.8572 18.4946 12.8572Z" fill="#447376" fill-opacity="0.7"/>
<path d="M14.0018 12.3521C13.7261 12.0848 13.2891 12.0848 13.0135 12.3521L10.6697 14.7043V0.714299C10.6697 0.319796 10.3512 0 9.95838 0C9.56552 0 9.24705 0.319796 9.24705 0.714299V14.7043L6.90469 12.3521C6.62211 12.0781 6.17182 12.086 5.89891 12.3697C5.63267 12.6465 5.63267 13.0853 5.89891 13.3621L9.45544 16.9335C9.7329 17.2128 10.1833 17.2134 10.4614 16.9348C10.4618 16.9344 10.4622 16.934 10.4627 16.9335L14.0192 13.3621C14.2922 13.0784 14.2843 12.6262 14.0018 12.3521Z" fill="#447376" fill-opacity="0.7"/>
</g>
<defs>
<clipPath id="clip0">
<rect width="19.9167" height="20" fill="white"/>
</clipPath>
</defs>
</svg>
