<svg fill="none" xmlns="http://www.w3.org/2000/svg" viewBox="0 0 190 40">
    <mask id="a" maskUnits="userSpaceOnUse" x="57" y="12" width="133" height="16">
        <path fill-rule="evenodd" clip-rule="evenodd" d="M57 12h132.957v15.9028H57V12z" fill="#fff"/>
    </mask>
    <g mask="url(#a)">
        <path fill-rule="evenodd" clip-rule="evenodd" d="M181.475 24.8666h-2.057v-9.8311h1.98c3.606 0 4.572 2.0837 4.572 4.8477 0 2.8997-.939 4.9834-4.495 4.9834zm.355-12.844h-4.748c-1.219 0-1.524.4303-1.524 1.4049v13.0932c0 .9737.305 1.3821 1.524 1.3821h5.028c5.993 0 7.847-3.8513 7.847-8.0196 0-4.2583-2.157-7.8606-8.127-7.8606zm-12.162 12.89h-6.705c-1.091 0-1.65-.2946-1.65-1.3598v-2.5826h7.289c.405 0 .482-.1581.482-.5204v-1.7676c0-.4298-.077-.5426-.482-.5426h-7.289v-1.7443c0-.7932.331-1.4049 1.65-1.4049h6.452c.381 0 .482-.1135.482-.4982v-1.9253c0-.4311-.076-.5443-.482-.5443h-7.29c-3.428 0-4.672 2.0385-4.672 4.1913v7.5205c0 2.0615.939 4.1684 4.698 4.1684h7.517c.407 0 .508-.1588.508-.5215v-1.9254c0-.453-.076-.5433-.508-.5433zm-20.187-12.89h-1.244c-1.092 0-1.447.2946-1.853 1.1099l-2.591 5.1656-1.727 3.5337h-.101l-1.575-3.2167-2.768-5.5276c-.406-.7931-.761-1.0649-1.702-1.0649h-1.472c-1.194 0-1.626.4303-1.626 1.5862v13.8404c0 .4303.203.4536.584.4536h2.591c.431 0 .584-.0233.584-.4536v-8.4041h.153l1.574 3.0583 1.574 2.9446c.407.7931.585.9969 1.422.9969h1.397c.787 0 1.067-.2038 1.448-.9969l2.108-4.1679 1.041-2.1069h.152v8.676c0 .4303.178.4536.56.4536h2.513c.432 0 .585-.0233.585-.4536V13.4953c0-1.1558-.534-1.4727-1.626-1.4727h-.001zm-31.437 9.7635l.965-2.877.965-3.2398h.153l.939 3.2398.965 2.877h-3.987zm4.698-8.5405c-.406-1.1098-.837-1.2456-1.98-1.2456h-1.524c-1.016 0-1.524.2492-1.854 1.2456l-5.283 14.2036c-.076.2497-.025.4536.356.4536h2.972c.482 0 .609-.1364.711-.4303l.99-2.8776h5.816l.99 2.9456c.102.339.355.3623.737.3623h3.022c.381 0 .407-.2717.33-.4536l-5.283-14.2036zm-16.022-1.223h-2.666c-.482 0-.584.1132-.584.4755v9.4695h-.127l-2.184-3.0585-4.3174-5.8667c-.6093-.8611-.8637-1.0198-1.9052-1.0198h-1.0661c-1.2446 0-1.651.408-1.651 1.5862v13.8176c0 .3628.1782.4764.5843.4764h2.6667c.4823 0 .5838-.0913.5838-.4764v-9.3779h.1267l2.4382 3.3748 4.064 5.4825c.609.8382.863.997 1.905.997h1.066c1.321 0 1.651-.59 1.651-1.5635V12.4981c0-.3168-.203-.4755-.585-.4755zm-19.7292.0228H73.9873c-.3808 0-.4823.0904-.4823.4755v2.0165c0 .2945.152.453.4823.453h4.495v12.436c0 .3628.1779.4764.5845.4764h2.7171c.5085 0 .6101-.0913.6101-.4764v-12.436h4.5968c.3295 0 .5072-.1585.5072-.453v-2.0165c0-.3851-.1014-.4755-.5072-.4755zM69.2162 24.9126h-6.7055c-1.0921 0-1.6507-.2946-1.6507-1.3598v-2.5826h7.289c.4061 0 .4824-.1581.4824-.5204v-1.7676c0-.4298-.0763-.5426-.4824-.5426H60.86v-1.7443c0-.7932.3304-1.4049 1.6507-1.4049h6.451c.3814 0 .4828-.1135.4828-.4982v-1.9253c0-.4311-.0764-.5443-.4828-.5443h-7.289c-3.4283 0-4.6727 2.0385-4.6727 4.1913v7.5205c0 2.0615.9398 4.1684 4.6985 4.1684h7.5177c.4056 0 .5072-.1588.5072-.5215v-1.9254c0-.453-.0758-.5433-.5072-.5433z" fill="#fff"/>
    </g>
    <path fill-rule="evenodd" clip-rule="evenodd" d="M35.8806 26.3888c-.7551-.4311-1.5887-.8144-2.4883-1.1449.4376-1.381.7058-2.8937.7704-4.4918h4.0093c-.1621 2.0766-.9837 4.0036-2.2914 5.6367zm-5.4276 3.9643c.9627-.9957 1.7749-2.2375 2.3943-3.6601.6998.264 1.3476.5626 1.9368.8907-1.2047 1.1486-2.6737 2.0964-4.3311 2.7694zm-5.0564 1.0686v-6.1228c2.0318.0733 3.9886.365 5.7384.843-1.2614 2.8691-3.3597 4.8995-5.7384 5.2798zm0-10.6696h6.9689c-.0649 1.3906-.3056 2.7227-.69 3.9466-1.9164-.5222-4.0457-.8353-6.2789-.9071v-3.0395zm0-4.3708c2.249-.059 4.4026-.362 6.3406-.8798.349 1.1684.5667 2.4314.6278 3.7462h-6.9684v-2.8664zm0-7.80389c2.432.38954 4.5718 2.50369 5.8231 5.47589-1.7797.4766-3.7678.7629-5.8231.8231V8.57741zm9.5685 4.01029c-.6154.3423-1.2946.6516-2.0295.9232-.629-1.5086-1.474-2.8213-2.4826-3.86417 1.7406.70667 3.276 1.71457 4.5121 2.94097zm3.2079 6.66h-4.0113c-.0615-1.5168-.307-2.9563-.7071-4.2795.9341-.3361 1.799-.7275 2.5803-1.1695 1.2212 1.5912 1.9841 3.4515 2.1381 5.449zM23.6029 14.87c-1.9944-.0708-3.918-.3539-5.6444-.8163 1.2207-2.8998 3.286-4.98669 5.6444-5.44898V14.87zm0 4.3777h-6.7883c.0609-1.3141.279-2.5758.6267-3.7442 1.8851.5029 3.9738.8034 6.1616.8738v2.8704zm0 4.5393c-2.167.0562-4.2443.3384-6.127.8206-.3679-1.1983-.5984-2.4998-.6613-3.8555h6.7883v3.0349zm0 7.6083c-2.3281-.4561-4.3712-2.4974-5.5962-5.3405 1.7216-.4407 3.6281-.7059 5.5962-.7633v6.1038zm-9.4575-3.8784c.6462-.3503 1.3616-.6648 2.1346-.9391.6473 1.5243 1.5154 2.8446 2.551 3.8846-1.8059-.6916-3.4004-1.7027-4.6856-2.9455zm-3.3185-6.7648h4.1906c.0625 1.5532.3191 3.0241.7358 4.3745-.9777.3382-1.8819.7365-2.6975 1.1895-1.2736-1.6166-2.0697-3.5178-2.2289-5.564zm2.1947-7.0242c.8123.4725 1.7199.8872 2.7026 1.2412-.3987 1.3239-.6447 2.7618-.7067 4.2786h-4.1906c.1571-2.0266.9401-3.9124 2.1947-5.5198zm5.8094-4.19042c-1.0563 1.06052-1.9368 2.41462-2.5877 3.97622-.7793-.2886-1.4951-.6204-2.14-.9882 1.2926-1.2611 2.9021-2.2889 4.7277-2.98802zm5.9197-2.53202C24.6976 7.00397 24.6437 7 24.5897 7c-.0116 0-.023.00074-.0349.00074-.0184 0-.0363-.00074-.0547-.00074C15.9526 7 9 12.8315 9 19.9999 9 27.1684 15.9526 33 24.5001 33c.0184 0 .0363-.0005.0547-.0012.0119.0007.0233.0012.0349.0012.054 0 .1079-.0041.161-.0052C33.1819 32.8816 40 27.0979 40 19.9999c0-7.0981-6.8181-12.88123-15.2493-12.99444z" fill="#fff"/>
    <mask id="b" maskUnits="userSpaceOnUse" x="0" y="0" width="49" height="40">
        <path fill-rule="evenodd" clip-rule="evenodd" d="M0 0h48.9014v39.8783H0V0z" fill="#fff"/>
    </mask>
    <g mask="url(#b)">
        <path fill-rule="evenodd" clip-rule="evenodd" d="M28.6185 0l-.9287 3.57772C36.5781 4.7744 43.5023 10.8106 44.3847 18.314h-2.5492c-.3256 0-.5894.2186-.5894.4875v2.1946c0 .2693.2638.4875.5894.4875h2.5609c-.8417 7.5394-7.7829 13.6136-16.6997 14.817l.9279 3.5777c11.5143-1.6404 20.2768-9.9402 20.2768-19.939C48.9014 9.93846 40.1351 1.63778 28.6185 0zm-7.731 3.6256L19.9593.0472615C8.60207 1.79397 0 10.0329 0 19.9393 0 29.8455 8.60056 38.0837 19.9562 39.83l.9285-3.5767c-8.7624-1.3045-15.54721-7.3209-16.37896-14.7697H7.0174c.32571 0 .58913-.2182.58913-.4875v-2.1946c0-.2689-.26342-.4875-.58913-.4875H4.5169c.8721-7.4116 7.6385-13.38994 16.3706-14.6884z" fill="#55BDC4"/>
    </g>
</svg>
