<svg fill="none" xmlns="http://www.w3.org/2000/svg" viewBox="0 0 40 15">
    <path fill-rule="evenodd" clip-rule="evenodd" d="M32.0339 11.8566v.2909h-.0534v-.2199l-.082.1898h-.0558l-.082-.1893v.2194h-.0539v-.2909h.0763l.0872.1998.0878-.1998h.0758zm-.4812.0493v.2413h-.0534v-.2413h-.0973v-.0491h.248v.0491h-.0973z" fill="#F79410"/>
    <path d="M23.4153 13.3961h-6.5621V1.60327h6.5621V13.3961z" fill="#FF5F00"/>
    <path d="M17.2695 7.5c0-2.39224 1.1201-4.52317 2.8643-5.89643C18.8583.599372 17.2485.000001 15.499.000001 11.3573.000001 8 3.35781 8 7.5c0 4.1422 3.3573 7.5 7.499 7.5 1.7495 0 3.3593-.5994 4.6348-1.6036-1.7442-1.3732-2.8643-3.50416-2.8643-5.8964z" fill="#EB001B"/>
    <path d="M32.268 7.5c0 4.1422-3.3573 7.5-7.499 7.5-1.7495 0-3.3593-.5994-4.6352-1.6036 1.7447-1.3732 2.8647-3.50416 2.8647-5.8964 0-2.39224-1.12-4.52317-2.8647-5.89643C21.4097.599372 23.0195.000001 24.769.000001c4.1417 0 7.499 3.357809 7.499 7.499999z" fill="#F79E1B"/>
</svg>