<svg viewBox="0 0 40 15" fill="none" xmlns="http://www.w3.org/2000/svg">
    <path d="M12.2702 2v.00437c-.0043 0-1.3438-.00437-1.701 1.31004-.3274 1.20524-1.25017 4.53275-1.27569 4.62445h-.25514s-.94403-3.40174-1.27571-4.62882C7.40546 1.99563 6.06171 2 6.06171 2H3v10h3.06171V6.06114h.25514L8.10285 12H10.229l1.786-5.9345h.2552V12h3.0617V2h-3.0617zM23.4539 2s-.8972.08297-1.3182 1.04803L19.967 7.93886h-.2552V2h-3.0617v10h2.8916s.9398-.0873 1.3608-1.048l2.1262-4.89086h.2551V12h3.0617V2h-2.8916zM27.7063 7.5415V13h3.0617V9.81225h3.3169c1.4458 0 2.6705-.9476 3.1255-2.27075h-9.5041z" fill="#4DB45E"/>
    <path d="M34.0848 2h-6.808c.3402 1.90393 1.7307 3.43231 3.5295 3.93013.4082.11354.8377.17467 1.2799.17467h5.2475c.0467-.22707.068-.45851.068-.69869C37.4017 3.52402 35.9176 2 34.0848 2z" fill="url(#paint0_linear)"/>
    <defs>
        <linearGradient id="paint0_linear" x1="27.2776" y1="6.10464" x2="37.4017" y2="6.10464" gradientUnits="userSpaceOnUse">
            <stop offset=".3" stop-color="#00B4E6"/>
            <stop offset="1" stop-color="#088CCB"/>
        </linearGradient>
    </defs>
</svg>