<?xml version="1.0" encoding="UTF-8"?>
<svg width="66px" height="24px" viewBox="0 0 66 24" version="1.1" xmlns="http://www.w3.org/2000/svg" xmlns:xlink="http://www.w3.org/1999/xlink">
    <title>pari</title>
    <defs>
        <linearGradient x1="49.9931021%" y1="0.000578362737%" x2="49.9931021%" y2="100.000168%" id="linearGradient-1">
            <stop stop-color="#345352" offset="0%"></stop>
            <stop stop-color="#345352" offset="18.4%"></stop>
            <stop stop-color="#FFFFFF" offset="37.3%"></stop>
            <stop stop-color="#FFFFFF" offset="67%"></stop>
            <stop stop-color="#345352" offset="80%"></stop>
            <stop stop-color="#345352" offset="100%"></stop>
        </linearGradient>
        <linearGradient x1="50.0151753%" y1="0.000289181232%" x2="50.0151753%" y2="99.9998319%" id="linearGradient-2">
            <stop stop-color="#345352" offset="0%"></stop>
            <stop stop-color="#345352" offset="18.4%"></stop>
            <stop stop-color="#FFFFFF" offset="37.3%"></stop>
            <stop stop-color="#FFFFFF" offset="67%"></stop>
            <stop stop-color="#345352" offset="80%"></stop>
            <stop stop-color="#345352" offset="100%"></stop>
        </linearGradient>
        <linearGradient x1="49.990343%" y1="0.000289181232%" x2="49.990343%" y2="99.9998319%" id="linearGradient-3">
            <stop stop-color="#345352" offset="0%"></stop>
            <stop stop-color="#345352" offset="18.4%"></stop>
            <stop stop-color="#FFFFFF" offset="37.3%"></stop>
            <stop stop-color="#FFFFFF" offset="67%"></stop>
            <stop stop-color="#345352" offset="80%"></stop>
            <stop stop-color="#345352" offset="100%"></stop>
        </linearGradient>
        <linearGradient x1="50.0110363%" y1="0.000289181232%" x2="50.0110363%" y2="99.9998319%" id="linearGradient-4">
            <stop stop-color="#345352" offset="0%"></stop>
            <stop stop-color="#345352" offset="18.4%"></stop>
            <stop stop-color="#FFFFFF" offset="37.3%"></stop>
            <stop stop-color="#FFFFFF" offset="67%"></stop>
            <stop stop-color="#345352" offset="80%"></stop>
            <stop stop-color="#345352" offset="100%"></stop>
        </linearGradient>
        <linearGradient x1="50.0137954%" y1="0.000289181232%" x2="50.0137954%" y2="99.9998319%" id="linearGradient-5">
            <stop stop-color="#345352" offset="0%"></stop>
            <stop stop-color="#345352" offset="18.4%"></stop>
            <stop stop-color="#FFFFFF" offset="37.3%"></stop>
            <stop stop-color="#FFFFFF" offset="67%"></stop>
            <stop stop-color="#345352" offset="80%"></stop>
            <stop stop-color="#345352" offset="100%"></stop>
        </linearGradient>
        <linearGradient x1="49.9917228%" y1="0.000289181232%" x2="49.9917228%" y2="99.9998319%" id="linearGradient-6">
            <stop stop-color="#345352" offset="0%"></stop>
            <stop stop-color="#345352" offset="18.4%"></stop>
            <stop stop-color="#FFFFFF" offset="37.3%"></stop>
            <stop stop-color="#FFFFFF" offset="67%"></stop>
            <stop stop-color="#345352" offset="80%"></stop>
            <stop stop-color="#345352" offset="100%"></stop>
        </linearGradient>
        <linearGradient x1="49.9936541%" y1="0.000578362737%" x2="49.9936541%" y2="100.000168%" id="linearGradient-7">
            <stop stop-color="#345352" offset="0%"></stop>
            <stop stop-color="#345352" offset="18.4%"></stop>
            <stop stop-color="#FFFFFF" offset="37.3%"></stop>
            <stop stop-color="#FFFFFF" offset="67%"></stop>
            <stop stop-color="#345352" offset="80%"></stop>
            <stop stop-color="#345352" offset="100%"></stop>
        </linearGradient>
    </defs>
    <g id="ДМС" stroke="none" stroke-width="1" fill="none" fill-rule="evenodd">
        <g id="Desktop-HD-Copy-16" transform="translate(-133.000000, -496.000000)" fill-rule="nonzero">
            <g id="pari" transform="translate(133.000000, 496.000000)">
                <path d="M31.6528,6.713 L32.44672,6.95648 C32.34316,7.40864 32.13604,7.72168 31.85992,7.9304 C31.58376,8.13908 31.2386,8.24344 30.78984,8.24344 C30.27208,8.24344 29.82336,8.06952 29.47816,7.68692 C29.133,7.33908 28.9604,6.81736 28.9604,6.19128 C28.9604,5.5304 29.133,5.00864 29.47816,4.62604 C29.82336,4.24344 30.27208,4.06952 30.82436,4.06952 C31.3076,4.06952 31.72184,4.20864 31.99796,4.52172 C32.17056,4.6956 32.30864,4.93908 32.4122,5.25212 L31.61828,5.46084 C31.58376,5.25212 31.4802,5.0782 31.3076,4.97388 C31.13504,4.86952 30.96244,4.79996 30.75532,4.79996 C30.44468,4.79996 30.23756,4.90432 30.03048,5.113 C29.85788,5.32172 29.75432,5.66952 29.75432,6.15648 C29.75432,6.67824 29.85788,7.02604 30.03048,7.23476 C30.20304,7.44344 30.44468,7.5478 30.7208,7.5478 C30.92792,7.5478 31.13504,7.47824 31.27312,7.33908 C31.4802,7.19996 31.58376,6.99128 31.6528,6.713 Z M34.24164,8.17384 L34.24164,4.83472 L33.068,4.83472 L33.068,4.13908 L36.24364,4.13908 L36.24364,4.83472 L35.07004,4.83472 L35.07004,8.17384 L34.24164,8.17384 Z M37.07208,8.17384 L37.07208,4.17384 L38.34924,4.17384 C38.83248,4.17384 39.14316,4.2086 39.31572,4.2434 C39.55736,4.31296 39.72996,4.41732 39.90252,4.626 C40.0752,4.83468 40.144,5.07816 40.144,5.3912 C40.144,5.63468 40.1096,5.8434 40.006,6.01732 C39.90256,6.1912 39.799,6.33036 39.66092,6.39992 C39.52284,6.50428 39.38476,6.57384 39.24672,6.57384 C39.0396,6.6086 38.76344,6.6434 38.41828,6.6434 L37.90052,6.6434 L37.90052,8.17384 L37.07208,8.17384 Z M37.90052,4.83468 L37.90052,5.98252 L38.34924,5.98252 C38.65988,5.98252 38.867,5.94776 38.97056,5.91296 C39.07412,5.87816 39.17768,5.8086 39.2122,5.70428 C39.2812,5.59992 39.31572,5.49556 39.31572,5.3912 C39.31572,5.25208 39.2812,5.11296 39.17768,5.0434 C39.10864,4.93904 38.97056,4.90428 38.867,4.86948 C38.76344,4.83468 38.59088,4.83468 38.2802,4.83468 L37.90052,4.83468 Z M44.2516,8.17384 L43.3888,8.17384 L43.0436,7.26948 L41.4212,7.26948 L41.076,8.17384 L40.2132,8.17384 L41.7664,4.17384 L42.6296,4.17384 L44.2516,8.17384 Z M42.7676,6.57384 L42.2152,5.07816 L41.6628,6.57384 L42.7676,6.57384 Z M44.5968,8.17384 L45.9432,6.08688 L44.7004,4.17384 L45.6324,4.17384 L46.4264,5.4608 L47.2204,4.17384 L48.1524,4.17384 L46.9096,6.12164 L48.256,8.17384 L47.2892,8.17384 L46.392,6.78252 L45.4944,8.17384 L44.5968,8.17384 Z M48.7736,6.19128 C48.7736,5.77388 48.8428,5.42604 48.946,5.1478 C49.0496,4.93908 49.1532,4.7652 49.326,4.59128 C49.4984,4.41736 49.6712,4.313 49.8436,4.24344 C50.0852,4.13908 50.3616,4.06952 50.7068,4.06952 C51.2936,4.06952 51.7768,4.24344 52.122,4.62604 C52.4672,5.00864 52.6396,5.4956 52.6396,6.15648 C52.6396,6.81736 52.4672,7.30432 52.122,7.68692 C51.7768,8.06952 51.2936,8.24344 50.7068,8.24344 C50.12,8.24344 49.6364,8.06952 49.2912,7.68692 C48.946,7.33908 48.7736,6.85212 48.7736,6.19128 Z M49.602,6.15648 C49.602,6.60868 49.7056,6.95648 49.9128,7.19996 C50.1196,7.44344 50.396,7.5478 50.7068,7.5478 C51.0172,7.5478 51.2936,7.44344 51.5004,7.19996 C51.7076,6.95648 51.8112,6.60868 51.8112,6.15648 C51.8112,5.70432 51.7076,5.35648 51.5004,5.113 C51.2936,4.86952 51.0172,4.7652 50.7068,4.7652 C50.3616,4.7652 50.1196,4.86952 49.9128,5.113 C49.7056,5.35648 49.602,5.70432 49.602,6.15648 Z M53.606,4.17384 L55.194,4.17384 C55.5044,4.17384 55.7464,4.17384 55.8844,4.2086 C56.0224,4.2434 56.1948,4.27816 56.2984,4.38252 C56.402,4.48688 56.5056,4.59124 56.6092,4.73036 C56.7128,4.86948 56.7472,5.0434 56.7472,5.21732 C56.7472,5.3912 56.7128,5.56512 56.6092,5.73904 C56.5056,5.91296 56.3676,6.01732 56.1948,6.08688 C56.4364,6.15644 56.6092,6.29556 56.7472,6.43468 C56.8852,6.6086 56.9544,6.81732 56.9544,7.026 C56.9544,7.19992 56.92,7.37384 56.8164,7.54776 C56.7128,7.72164 56.6092,7.8608 56.4712,7.96512 C56.3332,8.06948 56.1604,8.13904 55.9188,8.13904 C55.7808,8.13904 55.47,8.17384 54.9524,8.17384 L53.606,8.17384 L53.606,4.17384 Z M54.4,4.83468 L54.4,5.77384 L54.9176,5.77384 C55.2284,5.77384 55.4356,5.77384 55.5044,5.77384 C55.6428,5.77384 55.7464,5.70428 55.8152,5.63472 C55.8844,5.56512 55.9188,5.4608 55.9188,5.32164 C55.9188,5.18252 55.8844,5.11296 55.8152,5.0086 C55.7464,4.93904 55.6428,4.86948 55.5044,4.86948 C55.4356,4.86948 55.194,4.86948 54.8144,4.86948 L54.4,4.86948 L54.4,4.83468 Z M54.4,6.43468 L54.4,7.51296 L55.1596,7.51296 C55.4356,7.51296 55.6428,7.51296 55.7116,7.47816 C55.8152,7.4434 55.9188,7.4086 55.988,7.30428 C56.0568,7.19992 56.0912,7.09556 56.0912,6.95644 C56.0912,6.85208 56.0568,6.74776 55.988,6.6434 C55.9188,6.53904 55.8496,6.50428 55.7464,6.46948 C55.6428,6.43468 55.4012,6.39992 55.0212,6.39992 L54.4,6.39992 L54.4,6.43468 Z M61.3036,8.17384 L60.406,8.17384 L60.0608,7.26948 L58.4732,7.26948 L58.128,8.17384 L57.2996,8.17384 L58.8528,4.17384 L59.7156,4.17384 L61.3036,8.17384 Z M59.8192,6.57384 L59.2672,5.07816 L58.7148,6.57384 L59.8192,6.57384 Z M64.4448,8.17388 L64.4448,6.50432 L64.272,6.50432 C64.0304,6.50432 63.8232,6.53908 63.72,6.60864 C63.6164,6.6782 63.4436,6.92168 63.202,7.30432 L62.6152,8.17388 L61.6488,8.17388 L62.132,7.37388 C62.3392,7.06084 62.4772,6.85212 62.5808,6.713 C62.6844,6.57388 62.8224,6.46952 62.9948,6.36516 C62.6152,6.2956 62.3392,6.19128 62.2012,5.98256 C62.0284,5.77388 61.9596,5.5304 61.9596,5.25212 C61.9596,5.00864 62.0284,4.79996 62.132,4.59128 C62.27,4.41736 62.408,4.2782 62.6152,4.20864 C62.8224,4.13908 63.0984,4.10428 63.5128,4.10428 L65.204,4.10428 L65.204,8.10428 L64.4448,8.10428 L64.4448,8.17388 Z M64.4448,4.83472 L63.8232,4.83472 C63.5128,4.83472 63.3056,4.83472 63.202,4.86952 C63.0984,4.86952 63.0296,4.93908 62.926,5.00864 C62.8224,5.0782 62.8224,5.21736 62.8224,5.32168 C62.8224,5.4608 62.8568,5.56516 62.926,5.66952 C62.9948,5.73908 63.0984,5.80864 63.202,5.80864 C63.3056,5.80864 63.5128,5.84344 63.858,5.84344 L64.4448,5.84344 L64.4448,4.83472 Z M29.133,16.313 L29.92692,16.313 L29.92692,18.01736 C30.09948,17.98256 30.23756,17.9478 30.3066,17.87824 C30.37564,17.80864 30.4792,17.59996 30.61724,17.25216 C30.78984,16.83476 30.96244,16.55648 31.13504,16.45212 C31.3076,16.3478 31.58376,16.27824 31.92892,16.27824 C31.96344,16.27824 31.99796,16.27824 32.03248,16.27824 L32.03248,16.86952 L31.92892,16.86952 C31.75636,16.86952 31.6528,16.90432 31.58376,16.93912 C31.51472,16.97388 31.44568,17.04344 31.41116,17.113 C31.37664,17.18256 31.3076,17.35648 31.20408,17.63476 C31.16956,17.77388 31.10052,17.87824 31.03148,17.98256 C30.96244,18.08692 30.85888,18.15648 30.7208,18.26084 C30.8934,18.2956 31.03148,18.39996 31.16956,18.57388 C31.27308,18.713 31.41116,18.95648 31.54924,19.23476 L32.10152,20.3478 L31.16956,20.3478 L30.68628,19.30432 C30.68628,19.30432 30.65176,19.26952 30.65176,19.23476 C30.65176,19.23476 30.61724,19.16516 30.54824,19.06084 C30.44468,18.85212 30.37564,18.7478 30.3066,18.67824 C30.23756,18.64344 30.134,18.60868 29.99592,18.60868 L29.99592,20.38256 L29.20204,20.38256 L29.20204,16.313 L29.133,16.313 Z M33.03348,18.3652 C33.03348,17.9478 33.10252,17.59996 33.20608,17.32172 C33.30964,17.113 33.4132,16.93912 33.5858,16.7652 C33.75836,16.59128 33.93096,16.48692 34.10356,16.41736 C34.34516,16.31304 34.62132,16.24344 34.96648,16.24344 C35.55328,16.24344 36.03656,16.41736 36.38172,16.79996 C36.72688,17.18256 36.89948,17.66956 36.89948,18.3304 C36.89948,18.99128 36.72688,19.47824 36.38172,19.86084 C36.03656,20.24344 35.55328,20.41736 34.96648,20.41736 C34.37968,20.41736 33.89644,20.24344 33.55128,19.86084 C33.20608,19.47824 33.03348,18.99128 33.03348,18.3652 Z M33.86192,18.3304 C33.86192,18.7826 33.96548,19.1304 34.1726,19.37388 C34.37968,19.61736 34.65584,19.72172 34.96648,19.72172 C35.27716,19.72172 35.55328,19.61736 35.7604,19.37388 C35.96752,19.1304 36.07108,18.7826 36.07108,18.3304 C36.07108,17.87824 35.96752,17.5304 35.7604,17.28692 C35.55328,17.04344 35.27716,16.93912 34.96648,16.93912 C34.65584,16.93912 34.37968,17.04344 34.1726,17.28692 C33.96548,17.5304 33.86192,17.87824 33.86192,18.3304 Z M38.21116,20.34784 L38.21116,16.34784 L39.41928,16.34784 L40.144,19.09568 L40.8692,16.34784 L42.0772,16.34784 L42.0772,20.34784 L41.3176,20.34784 L41.3176,17.18264 L40.524,20.34784 L39.76448,20.34784 L38.97056,17.18264 L38.97056,20.34784 L38.21116,20.34784 Z M43.5616,16.313 L46.7372,16.313 L46.7372,20.313 L45.9088,20.313 L45.9088,16.97384 L44.3552,16.97384 L44.3552,20.313 L43.5616,20.313 L43.5616,16.313 Z M51.8456,20.34784 L50.9828,20.34784 L50.6376,19.44348 L49.0152,19.44348 L48.67,20.34784 L47.8072,20.34784 L49.3604,16.34784 L50.2232,16.34784 L51.8456,20.34784 Z M50.3616,18.74784 L49.8092,17.2522 L49.2568,18.74784 L50.3616,18.74784 Z M52.9504,20.34784 L52.9504,16.34784 L53.744,16.34784 L53.744,17.91308 L55.332,17.91308 L55.332,16.34784 L56.126,16.34784 L56.126,20.34784 L55.332,20.34784 L55.332,18.60872 L53.744,18.60872 L53.744,20.34784 L52.9504,20.34784 Z M57.6792,16.313 L58.4384,16.313 L58.4384,18.99124 L60.0608,16.313 L60.8548,16.313 L60.8548,20.313 L60.0956,20.313 L60.0956,17.70428 L58.4732,20.313 L57.6792,20.313 L57.6792,16.313 Z M64.7208,20.3478 L64.7208,18.67824 L64.5484,18.67824 C64.3064,18.67824 64.0996,18.713 63.996,18.78256 C63.8924,18.85212 63.7196,19.0956 63.478,19.47824 L62.8912,20.3478 L61.9248,20.3478 L62.408,19.5478 C62.6152,19.23476 62.7532,19.02604 62.8568,18.88692 C62.9604,18.7478 63.0984,18.64344 63.2712,18.53908 C62.8912,18.46952 62.6152,18.3652 62.4772,18.15648 C62.3044,17.9478 62.2356,17.70432 62.2356,17.42604 C62.2356,17.18256 62.3044,16.97388 62.408,16.7652 C62.546,16.59128 62.6844,16.45216 62.8912,16.38256 C63.0984,16.313 63.3748,16.27824 63.7888,16.27824 L65.4804,16.27824 L65.4804,20.27824 L64.7208,20.27824 L64.7208,20.3478 Z M64.7208,17.00864 L64.0996,17.00864 C63.7888,17.00864 63.5816,17.00868 63.478,17.04344 C63.3748,17.04344 63.3056,17.113 63.202,17.18256 C63.0984,17.25212 63.0984,17.39128 63.0984,17.4956 C63.0984,17.63476 63.1328,17.73908 63.202,17.84344 C63.2712,17.913 63.3748,17.98256 63.478,17.98256 C63.5816,17.98256 63.7888,18.01736 64.134,18.01736 L64.7208,18.01736 L64.7208,17.00864 Z" id="Shape" fill="#345352"></path>
                <polygon id="Path" fill="url(#linearGradient-1)" points="23.85176 0.1390624 22.40204 0.1390624 22.40204 23.93036 23.85176 23.93036"></polygon>
                <polygon id="Path" fill="url(#linearGradient-2)" points="20.12384 0.0695312 18.67412 0.0695312 18.67412 23.86084 20.12384 23.86084"></polygon>
                <polygon id="Path" fill="url(#linearGradient-3)" points="16.3614 0.0695312 14.91168 0.0695312 14.91168 23.86084 16.3614 23.86084"></polygon>
                <polygon id="Path" fill="url(#linearGradient-4)" points="12.87512 0.0695312 11.42536 0.0695312 11.42536 23.86084 12.87512 23.86084"></polygon>
                <polygon id="Path" fill="url(#linearGradient-5)" points="9.11268 0.0695312 7.66292 0.0695312 7.66292 23.86084 9.11268 23.86084"></polygon>
                <polygon id="Path" fill="url(#linearGradient-6)" points="5.4538 0.0695312 4.00404 0.0695312 4.00404 23.86084 5.4538 23.86084"></polygon>
                <polygon id="Path" fill="url(#linearGradient-7)" points="1.691364 0.1390624 0.24162 0.1390624 0.24162 23.93036 1.691364 23.93036"></polygon>
                <path d="M3.865988,10.43476 L3.865988,14.19128 L2.657864,14.19128 L2.657864,11.47824 L1.484264,11.47824 L1.484264,14.19128 L0.2761412,14.19128 L0.2761412,10.43476 L3.865988,10.43476 Z M8.11168,14.22608 L6.90356,14.22608 L8.24976,10.43476 L9.4924,10.43476 L10.83856,14.19128 L9.63044,14.19128 L9.4924,13.70432 L8.24976,13.70432 L8.11168,14.22608 Z M9.25076,12.93912 L8.87108,11.5478 L8.49136,12.93912 L9.25076,12.93912 Z M14.98072,14.22608 L13.7726,14.22608 L13.7726,10.43476 L15.56752,10.43476 C16.08528,10.43476 16.49948,10.53912 16.77564,10.7478 C17.05176,10.99128 17.15532,11.26956 17.15532,11.68696 C17.15532,12.10432 17.05176,12.41736 16.81016,12.62608 C16.534,12.90432 16.15432,12.97388 15.60204,12.97388 L14.98072,12.97388 L14.98072,14.22608 Z M14.98072,12.13912 L15.49848,12.13912 C15.67108,12.13912 15.7746,12.10432 15.84364,12.03476 C15.9472,11.9652 15.98172,11.86084 15.98172,11.72172 C15.98172,11.5478 15.91268,11.44344 15.74012,11.40868 C15.63656,11.33912 15.49848,11.33912 15.32588,11.33912 L14.98072,11.33912 L14.98072,12.13912 Z M21.401,12.45216 L22.67816,10.46956 L23.81724,10.46956 L23.81724,14.22608 L22.64364,14.22608 L22.64364,12.24348 L21.36648,14.22608 L20.19288,14.22608 L20.19288,10.43476 L21.36648,10.43476 L21.401,12.45216 Z" id="Shape" fill="#345352"></path>
            </g>
        </g>
    </g>
</svg>