<svg width="13" height="16" viewBox="0 0 13 16" fill="none" xmlns="http://www.w3.org/2000/svg">
<path fill-rule="evenodd" clip-rule="evenodd" d="M8.87137 6.16894C8.15651 6.87159 7.28186 7.22772 6.27164 7.22772C5.26166 7.22772 4.38701 6.87148 3.67203 6.16906C2.95729 5.46652 2.59485 4.60682 2.59485 3.61375C2.59485 2.6209 2.95729 1.7612 3.67203 1.05866C4.38678 0.356132 5.26131 0 6.27164 0C7.28174 0 8.15639 0.356132 8.87125 1.05855C9.58611 1.76131 9.94844 2.62102 9.94844 3.61375C9.94844 4.60682 9.586 5.46641 8.87137 6.16894ZM6.271 0.879272C5.49581 0.879272 4.85246 1.14131 4.30402 1.68037C3.75547 2.21955 3.48877 2.85202 3.48877 3.61374C3.48877 4.37569 3.75547 5.00816 4.30402 5.54722C4.85269 6.08629 5.49604 6.34843 6.271 6.34843C7.04607 6.34843 7.68954 6.0864 8.23809 5.54722C8.78652 5.00805 9.05323 4.37569 9.05323 3.61374C9.05323 2.85202 8.78652 2.21955 8.23809 1.68037C7.68954 1.14131 7.04607 0.879272 6.271 0.879272Z" fill="#3D4FC3"/>
<path fill-rule="evenodd" clip-rule="evenodd" d="M12.5813 10.5897C12.6427 10.9265 12.6844 11.2454 12.705 11.5377C12.7254 11.8235 12.7358 12.1217 12.7359 12.424C12.7359 13.2075 12.4826 13.8418 11.9829 14.3091C11.4895 14.7705 10.8368 15.0045 10.0431 15.0045H2.69278C1.89884 15.0045 1.24617 14.7705 0.752828 14.3091C0.253311 13.8414 0 13.2074 0 12.4241C0 12.1228 0.0102489 11.8246 0.0305138 11.5381C0.051128 11.245 0.092706 10.926 0.154199 10.5897C0.216159 10.2504 0.295937 9.92972 0.391322 9.63655C0.490084 9.3333 0.624251 9.03418 0.789981 8.74742C0.961883 8.4499 1.16407 8.19085 1.39094 7.97747C1.62841 7.75412 1.91899 7.57474 2.25464 7.44413C2.58925 7.31385 2.96007 7.2478 3.35698 7.2478C3.51281 7.2478 3.66352 7.31065 3.95433 7.4969C4.13613 7.61332 4.34577 7.74611 4.57742 7.89161C4.77704 8.01684 5.04805 8.13418 5.3823 8.2403C5.70899 8.34413 6.04045 8.39679 6.36748 8.39679C6.69475 8.39679 7.0262 8.34413 7.35265 8.2403C7.68726 8.13407 7.95816 8.01673 8.15813 7.89149C8.39199 7.74462 8.60151 7.61183 8.78063 7.49701C9.07168 7.31076 9.22238 7.24792 9.37821 7.24792C9.77501 7.24792 10.1459 7.31385 10.4807 7.44401C10.8166 7.57486 11.107 7.75424 11.3443 7.97735C11.5711 8.19062 11.7733 8.44979 11.9453 8.74742C12.1113 9.03418 12.2453 9.33342 12.3441 9.63643C12.4396 9.9296 12.5194 10.2504 12.5813 10.5897ZM10.0423 14.1252C10.6067 14.1252 11.0395 13.977 11.3654 13.672C11.6851 13.373 11.8405 12.9648 11.8406 12.4241C11.8405 12.1421 11.831 11.8647 11.812 11.5992V11.599C11.7936 11.338 11.7558 11.0506 11.7002 10.7449C11.6452 10.4437 11.575 10.1609 11.4915 9.9045C11.4116 9.65918 11.3023 9.41592 11.1669 9.18182C11.0377 8.95836 10.8891 8.76685 10.7251 8.61265C10.5717 8.46841 10.3784 8.35016 10.1507 8.26155C9.93992 8.17959 9.70314 8.13471 9.44599 8.12796C9.41466 8.14433 9.35887 8.1757 9.2685 8.23351C9.0846 8.35142 8.87857 8.48192 8.63877 8.63257C8.37428 8.79833 8.03409 8.94772 7.62716 9.07696C7.21173 9.20895 6.78768 9.27603 6.36689 9.27603C5.9461 9.27603 5.52217 9.20895 5.10651 9.07684C4.69993 8.94783 4.35962 8.79833 4.09548 8.6328C3.86115 8.4857 3.64918 8.3513 3.46529 8.23351C3.37491 8.17558 3.31912 8.14433 3.28779 8.12796C3.03076 8.13471 2.79398 8.17959 2.5833 8.26155C2.35549 8.35016 2.16216 8.46829 2.00878 8.61265C1.8448 8.76696 1.69619 8.95848 1.56703 9.1817C1.43169 9.41592 1.32257 9.65907 1.24256 9.90461C1.15917 10.1607 1.08905 10.4436 1.03397 10.745C0.97818 11.0502 0.940562 11.3374 0.922161 11.5988C0.903293 11.8653 0.89386 12.1429 0.89386 12.4241C0.89386 12.9646 1.04922 13.373 1.36892 13.6721C1.69479 13.977 2.12757 14.1252 2.69208 14.1252H10.0423Z" fill="#3D4FC3"/>
</svg>
