<svg viewBox="0 0 40 15" fill="none" xmlns="http://www.w3.org/2000/svg">
    <path d="M14.6216 12.6857l2.0255-11.30899h3.1648L17.8497 12.6857h-3.2281z" fill="#fff"/>
    <path d="M14.6216 12.6857l2.5951-11.30899h2.5952L17.8497 12.6857h-3.2281zM29.3064 1.50262C28.6735 1.25131 27.6607 1 26.3948 1c-3.1649 0-5.4435 1.5707-5.4435 3.8325 0 1.69635 1.5824 2.57594 2.8483 3.1414 1.2659.56545 1.6457.94241 1.6457 1.44504 0 .75396-1.0127 1.13086-1.8989 1.13086-1.2659 0-1.9622-.1884-3.0382-.62824l-.4431-.18848-.4431 2.57592c.7596.3142 2.1521.6283 3.6079.6283 3.3548 0 5.5701-1.5707 5.5701-3.95816 0-1.31938-.8228-2.32463-2.7217-3.14139-1.1394-.56545-1.8356-.87959-1.8356-1.44504 0-.50263.5697-1.00525 1.8356-1.00525 1.076 0 1.8356.18848 2.4053.4398l.3164.12565.5064-2.45029z" fill="#fff"/>
    <path d="M29.3064 1.50262C28.6735 1.25131 27.6607 1 26.3948 1c-3.1649 0-4.8739 1.5707-4.8739 3.8325 0 1.69635 1.0128 2.57594 2.2787 3.1414 1.2659.56545 1.6457.94241 1.6457 1.44504 0 .75396-1.0127 1.13086-1.8989 1.13086-1.2659 0-1.9622-.1884-3.0382-.62824l-.4431-.18848-.4431 2.57592c.7596.3142 2.1521.6283 3.6079.6283 3.3548 0 5.5701-1.5707 5.5701-3.95816 0-1.31938-.8228-2.32463-2.7217-3.14139-1.1394-.56545-1.8356-.87959-1.8356-1.44504 0-.50263.5697-1.00525 1.8356-1.00525 1.076 0 1.8356.18848 2.4053.4398l.3164.12565.5064-2.45029z" fill="#fff"/>
    <path fill-rule="evenodd" clip-rule="evenodd" d="M33.1042 2.19347c.3165-.75393.8862-.81676 1.6457-.81676h2.4686L39.877 12.6857h-3.0383l-.3798-1.8848h-4.051l-.6329 1.8848h-3.418l4.7472-10.49223zM34.56 5.58593s-1.076 2.76443-1.2659 3.32988v.06283h2.6585c-.1266-.62828-.7596-3.45554-.7596-3.45554l-.1899-1.06807c-.1899.43979-.4431 1.1309-.4431 1.1309z" fill="#fff"/>
    <path fill-rule="evenodd" clip-rule="evenodd" d="M33.8638 2.19347c.3165-.75393.8861-.81676 1.6457-.81676h1.709L39.877 12.6857h-3.0383l-.3798-1.8848h-4.051l-.6329 1.8848h-3.418l5.5068-10.49223zm.6962 3.39246s-1.0127 2.7016-1.2659 3.32988v.06283h2.6585c-.1266-.62828-.7596-3.45554-.7596-3.45554l-.1899-1.06807c-.1899.43979-.4431 1.1309-.4431 1.1309z" fill="#fff"/>
    <path d="M8.79828 9.29343L8.48179 7.6599c-.56967-1.88483-2.40527-3.95815-4.43076-4.9634L6.89938 12.749h3.41802l5.127-11.30906h-3.418L8.79828 9.29343z" fill="#fff"/>
    <path d="M8.79828 9.29343L8.48179 7.6599c-.56967-1.88483-2.40527-3.95815-4.43076-4.9634L6.89938 12.749h3.41802l5.127-11.30906h-2.785L8.79828 9.29343z" fill="#fff"/>
    <path d="M0 1.37671l.56967.12565c4.05099.94242 6.83605 3.32988 7.91209 6.15714L7.34242 2.31913c-.18989-.75394-.75956-.94242-1.45583-.94242H0z" fill="#fff"/>
    <path d="M0 1.37671c4.05099.94242 7.40572 3.39271 8.48176 6.21996L7.40572 3.13589c-.18989-.75393-.82286-1.19373-1.51913-1.19373L0 1.37671z" fill="#fff"/>
    <path d="M0 1.37671c4.05099.94242 7.40572 3.39271 8.48176 6.21996L7.7222 5.14638c-.18989-.75393-.44308-1.50787-1.32923-1.82201L0 1.37671z" fill="#fff"/>
    <path d="M11.9631 9.91658L9.81096 7.78043 8.79821 10.1679l-.25318-1.57071c-.56967-1.88483-2.40528-3.95815-4.43077-4.9634L6.96261 13.6863h3.41799l1.5825-3.76972zM17.8497 13.6858l-2.7218-2.7644-.5063 2.7644h3.2281zM25.1288 9.79053c.2531.25127.3797.43977.3164.69107 0 .754-1.0127 1.1309-1.8989 1.1309-1.2659 0-1.9622-.1884-3.0382-.6282l-.4431-.1885-.4431 2.5759c.7596.3142 2.1521.6283 3.608.6283 2.0255 0 3.6712-.5655 4.6206-1.5707l-2.7217-2.63877zM28.8 13.6858h2.9749l.633-1.8849h4.051l.3798 1.8849h3.0382l-1.076-4.58646-3.7978-3.64402.1899 1.00525s.6329 2.82725.7595 3.45553h-2.6584c.2532-.62828 1.2659-3.32988 1.2659-3.32988s.2532-.6911.4431-1.1309" fill="#fff"/>
</svg>