<svg fill="none" xmlns="http://www.w3.org/2000/svg" viewBox="0 0 20 20">
    <g clip-path="url(#clip0)">
        <path d="M17.8023 11.9804l-.0108-.0101c-.1708-.1579-.6938-.668-.8702-.8909-.2071-.2781-.1593-.4603-.0042-.7334.1961-.345.589-.87434 1.0048-1.43482 1.3318-1.79458 2.1917-3.03694 2.0147-3.9194l-.0954-.47135-4.9184.00214c-.0172.04648-.2739 1.17616-1.3569 3.09977-.7854 1.39479-1.3006 1.83296-1.482 1.91032l-.0281-.00856c-.059-.07308-.1622-.2703-.2046-.77865-.0442-.53251-.005-1.17723.033-1.8007.0444-.7311.0827-1.36252-.009-1.8143l-.1494-.736c-.1805-.02889-.8414-.28437-2.68266-.30378-1.59409-.01636-2.06238.21434-2.29233.41768l-.76066.67255.96146.32412c.36591.12338.48737.26572.58701.97129.065.45988.09903 1.23272.02884 1.9227-.10086.98933-.34271 1.1734-.35523 1.18319-.04165-.01422-.3949-.1691-1.00815-1.46817-.42541-.90096-.79834-1.96673-1.07086-2.74493-.31189-.89117-.25574-.70144-.41397-1.12249l-4.7583125-.00015.3079225.79807c1.28372 3.33032 2.46155 5.93107 4.03779 7.79907 1.74149 2.0638 3.9058 3.1444 6.82115 3.1444h.5859v-.5871c0-.5489.0454-.9441.1426-1.2437.0593-.1826.1382-.3335.2211-.4917.1229-.233.2432-.3328.3088-.3477.0595-.0136.1642.0301.2801.1168.333.2488.5973.5756.8771.9218.4038.4995.8213 1.0158 1.4836 1.3538.362.1847 1.0254.2779 1.3906.2779.0966 0 3.5391-.0001 3.5434-.0001l-.0252-.6113c-.0375-.9139-.7555-2.0567-2.1335-3.3963zm-1.362 2.8334h-.0095c-.2517.0041-.7322-.0786-.872-.1498-.4404-.2248-.7481-.6056-1.1047-1.0465-.313-.3873-.6366-.7877-1.0872-1.1242-.3644-.2723-.6954-.3519-.9581-.3519-.105 0-.1993.0127-.2802.031-.305.0688-.7412.2886-1.0881.9459-.0978.187-.2087.3987-.2986.6758-.0941.2898-.1527.612-.1807 1.0038-2.19693-.125-3.91125-.9959-5.35962-2.7123-1.34659-1.596-2.40601-3.82832-3.52799-6.66543.08117 0 2.11533.0003 2.23541.0003.03678.10351.07645.21695.11857.33712.29373.8395.6961 1.98905 1.17019 2.96936.67887 1.40385 1.29883 2.02985 2.01005 2.02985.35507 0 .67352-.1507.92087-.4362.35263-.40679.5574-1.07827.62607-2.05292.05417-.76856.00381-1.53406-.0557-1.95588-.04913-.34705-.11917-.71138-.29007-1.03779.72831-.03287 1.70352.01911 2.32132.10794.0562.30638.0195.9086-.0159 1.49125-.0856 1.40747-.1739 2.8599.5696 3.5395.1308.1195.2695.1836.2735.1862l.3784.1163c.146-.0451.9918.3849 2.5934-2.41557.5131-.89729.9909-1.93126 1.2482-2.60656.5966-.00122 2.6292.00107 2.868.00138-.3383.74593-1.14 1.80987-1.664 2.51605-.4568.61552-.8513 1.14711-1.0827 1.5544-.43.7566-.3577 1.431.0902 2.0259l.007.0092c.2499.3187.8671.9089.9952 1.0278.9274.9022 1.3743 1.5503 1.587 1.9859h-2.1379v.0001z" fill="#fff"/>
    </g>
    <defs>
        <clipPath id="clip0">
            <path fill="#fff" d="M0 0h20v20H0z"/>
        </clipPath>
    </defs>
</svg>